<?xml version="1.0" encoding="UTF-8" standalone="no"?>
<!-- Created with Inkscape (http://www.inkscape.org/) -->

<svg
   xmlns:dc="http://purl.org/dc/elements/1.1/"
   xmlns:cc="http://creativecommons.org/ns#"
   xmlns:rdf="http://www.w3.org/1999/02/22-rdf-syntax-ns#"
   xmlns:svg="http://www.w3.org/2000/svg"
   xmlns="http://www.w3.org/2000/svg"
   xmlns:sodipodi="http://sodipodi.sourceforge.net/DTD/sodipodi-0.dtd"
   xmlns:inkscape="http://www.inkscape.org/namespaces/inkscape"
   width="16"
   height="16"
   id="svg2"
   version="1.1"
   inkscape:version="0.48.1 "
   sodipodi:docname="dpad.svg"
   inkscape:export-filename="C:\Users\D M Rutherford\Desktop\dpad-logo.png"
   inkscape:export-xdpi="1440"
   inkscape:export-ydpi="1440">
  <defs
     id="defs4" />
  <sodipodi:namedview
     id="base"
     pagecolor="#ffffff"
     bordercolor="#666666"
     borderopacity="1.0"
     inkscape:pageopacity="0.0"
     inkscape:pageshadow="2"
     inkscape:zoom="16"
     inkscape:cx="5.7996241"
     inkscape:cy="2.6055233"
     inkscape:document-units="px"
     inkscape:current-layer="layer1"
     showgrid="false"
     showborder="false"
     inkscape:showpageshadow="false"
     inkscape:window-width="1280"
     inkscape:window-height="738"
     inkscape:window-x="-8"
     inkscape:window-y="-8"
     inkscape:window-maximized="1">
    <inkscape:grid
       type="xygrid"
       id="grid2985"
       empspacing="2"
       visible="true"
       enabled="true"
       snapvisiblegridlinesonly="true"
       spacingx="0.5px"
       spacingy="0.5px" />
  </sodipodi:namedview>
  <metadata
     id="metadata7">
    <rdf:RDF>
      <cc:Work
         rdf:about="">
        <dc:format>image/svg+xml</dc:format>
        <dc:type
           rdf:resource="http://purl.org/dc/dcmitype/StillImage" />
        <dc:title></dc:title>
      </cc:Work>
    </rdf:RDF>
  </metadata>
  <g
     inkscape:label="Layer 1"
     inkscape:groupmode="layer"
     id="layer1"
     transform="translate(0,-1036.3622)">
    <rect
       style="fill:#35322f;fill-opacity:1;stroke:none;stroke-width:2;stroke-linecap:square;stroke-linejoin:round;stroke-miterlimit:4;stroke-opacity:1;stroke-dasharray:none"
       id="rect3771"
       width="16"
       height="16"
       x="0"
       y="0"
       transform="translate(0,1036.3622)" />
    <path
       style="fill:none;stroke:#676562;stroke-width:2;stroke-linecap:square;stroke-linejoin:round;stroke-miterlimit:4;stroke-opacity:1;stroke-dasharray:none"
       d="M 7,13 3,13 C 3,13 1,13 1,10.5 1,8 3,8 3,8 l 4,0"
       id="path2987"
       inkscape:connector-curvature="0"
       transform="translate(0,1036.3622)"
       sodipodi:nodetypes="ccccc" />
    <path
       style="fill:none;stroke:#676562;stroke-width:2;stroke-linecap:square;stroke-linejoin:round;stroke-miterlimit:4;stroke-opacity:1;stroke-dasharray:none"
       d="m 10,1044.3622 2,0 c 0,0 2,0 2,-2.5 0,-2.5 -2,-2.5 -2,-2.5 l -2,0"
       id="path2989"
       inkscape:connector-curvature="0"
       sodipodi:nodetypes="ccccc" />
    <rect
       style="fill:#676562;fill-opacity:1;stroke:none"
       id="rect2991"
       width="4"
       height="12"
       x="6"
       y="2"
       transform="translate(0,1036.3622)"
       rx="2"
       ry="2" />
    <path
       sodipodi:nodetypes="ccccc"
       inkscape:connector-curvature="0"
       id="path3773"
       d="m 9,1044.3622 4,0 c 0,0 2,0 2,-2.5 0,-2.5 -2,-2.5 -2,-2.5 l -4,0"
       style="fill:none;stroke:#676562;stroke-width:2;stroke-linecap:square;stroke-linejoin:round;stroke-miterlimit:4;stroke-opacity:1;stroke-dasharray:none" />
    <path
       sodipodi:nodetypes="ccccc"
       inkscape:connector-curvature="0"
       id="path3775"
       d="m 7,1049.3622 -3,0 c 0,0 -2,0 -2,-2.5 0,-2.5 2,-2.5 2,-2.5 l 3,0"
       style="fill:none;stroke:#676562;stroke-width:2;stroke-linecap:square;stroke-linejoin:round;stroke-miterlimit:4;stroke-opacity:1;stroke-dasharray:none" />
    <path
       style="fill:none;stroke:#cbc5c1;stroke-width:1px;stroke-linecap:round;stroke-linejoin:round;stroke-opacity:1"
       d="m 3.5,10.5 0,3 c 0,0 0,1 -1,1 -1,0 -1,-1 -1,-1 0,-1 1,-1 1,-1 0,0 1,0 1,1"
       id="path3761"
       inkscape:connector-curvature="0"
       transform="translate(0,1036.3622)"
       sodipodi:nodetypes="cccccc" />
    <path
       style="fill:none;stroke:#cbc5c1;stroke-width:1px;stroke-linecap:round;stroke-linejoin:round;stroke-opacity:1"
       d="m 5.5,14.5 0,-3 c 0,0 0,-1 1,-1 1,0 1,1 1,1 0,1 -1,1 -1,1 0,0 -1,0 -1,-1"
       id="path3763"
       inkscape:connector-curvature="0"
       transform="translate(0,1036.3622)"
       sodipodi:nodetypes="cccccc" />
    <path
       style="fill:none;stroke:#cbc5c1;stroke-width:1px;stroke-linecap:round;stroke-linejoin:round;stroke-opacity:1"
       d="m 14.5,10.5 0,3 c 0,0 0,1 -1,1 -1,0 -1,-1 -1,-1 0,-1 1,-1 1,-1 0,0 1,0 1,1"
       id="path3767"
       inkscape:connector-curvature="0"
       transform="translate(0,1036.3622)"
       sodipodi:nodetypes="cccccc" />
    <path
       style="fill:none;stroke:#cbc5c1;stroke-width:1px;stroke-linecap:round;stroke-linejoin:round;stroke-opacity:1"
       d="m 10.5,14.5 0,-1 c 0,0 0,-1 -1,-1 -1,0 -1,1 -1,1 0,0 0,1 1,1 1,0 1,-1 1,-1"
       id="path3769"
       inkscape:connector-curvature="0"
       transform="translate(0,1036.3622)"
       sodipodi:nodetypes="cccccc" />
  </g>
</svg>
